<svg xmlns="http://www.w3.org/2000/svg" width="40" height="40" fill="none"><path fill="#fff" d="M27.429 15.571c.178 0 .321-.035.428-.142.107-.108.143-.25.143-.429v-1.429a.537.537 0 0 0-.143-.392.591.591 0 0 0-.428-.179H12.57a.573.573 0 0 0-.392.179.573.573 0 0 0-.179.392V15c0 .179.071.321.179.429.107.107.25.142.392.142H27.43Zm0 5.715c.178 0 .321-.036.428-.143.107-.107.143-.25.143-.429v-1.428a.537.537 0 0 0-.143-.393.591.591 0 0 0-.428-.179H12.57a.573.573 0 0 0-.392.179.573.573 0 0 0-.179.393v1.428c0 .179.071.322.179.429.107.107.25.143.392.143H27.43Zm0 5.714c.178 0 .321-.036.428-.143.107-.107.143-.25.143-.428V25a.537.537 0 0 0-.143-.393.591.591 0 0 0-.428-.178H12.57a.574.574 0 0 0-.392.178A.573.573 0 0 0 12 25v1.429c0 .178.071.321.179.428.107.107.25.143.392.143H27.43Z"/></svg>