<svg xmlns="http://www.w3.org/2000/svg" width="21" height="20" viewBox="0 0 21 20" fill="none">
  <path fill-rule="evenodd" clip-rule="evenodd" d="M5.44433 2C5.17912 2 4.92476 2.10536 4.73723 2.29289C4.54969 2.48043 4.44434 2.73478 4.44434 3V17.0568L9.8631 13.1863C10.2108 12.9379 10.6779 12.9379 11.0256 13.1863L16.4443 17.0568V3C16.4443 2.73478 16.339 2.48043 16.1514 2.29289C15.9639 2.10536 15.7095 2 15.4443 2H5.44433ZM3.32302 0.878679C3.88562 0.31607 4.64869 0 5.44433 0H15.4443C16.24 0 17.003 0.31607 17.5657 0.878679C18.1283 1.44129 18.4443 2.20435 18.4443 3V19C18.4443 19.3746 18.235 19.7178 17.9019 19.8892C17.5688 20.0606 17.1679 20.0315 16.8631 19.8137L10.4443 15.2289L4.02557 19.8137C3.72076 20.0315 3.31983 20.0606 2.98675 19.8892C2.65368 19.7178 2.44434 19.3746 2.44434 19V3C2.44434 2.20435 2.76041 1.44129 3.32302 0.878679Z" fill="#818181"/>
</svg>